<svg width="2048" height="1152" viewBox="0 0 2048 1152" fill="none" xmlns="http://www.w3.org/2000/svg">
<mask id="mask0_6_12" style="mask-type:luminance" maskUnits="userSpaceOnUse" x="0" y="0" width="2048" height="1152">
<path d="M2048 0H0V1152H2048V0Z" fill="white"/>
</mask>
<g mask="url(#mask0_6_12)">
<path d="M2047.99 0H0.0107422V1152H2047.99V0Z" fill="#001529"/>
<path fill-rule="evenodd" clip-rule="evenodd" d="M608.388 649.479C606.684 636.865 596.98 632.428 561.86 625.287C542.304 621.314 522.092 617.2 504.981 606.401C484.305 593.381 473.233 573.618 471.929 547.612C457.771 539.631 449.007 524.768 449 508.726V508.705C449 484.102 469.598 463.855 494.629 463.855C519.66 463.855 540.258 484.102 540.258 508.705C540.258 524.631 531.628 539.407 517.636 547.437C519.269 567.816 531.952 573.366 571.107 581.369C583.769 583.948 596.722 586.59 608.686 591.131V502.692C594.585 494.69 585.871 479.854 585.871 463.85C585.871 439.246 606.469 419 631.5 419C656.531 419 677.129 439.246 677.129 463.85C677.129 479.854 668.415 494.69 654.314 502.692V591.131C666.278 586.59 679.231 583.948 691.893 581.369C731.048 573.366 743.731 567.816 745.364 547.437C731.372 539.407 722.742 524.631 722.742 508.705C722.742 484.102 743.339 463.855 768.371 463.855C793.402 463.855 814 484.102 814 508.705V508.726C813.993 524.768 805.229 539.631 791.071 547.612C789.767 573.618 778.695 593.381 758.019 606.401C740.908 617.2 720.696 621.314 701.14 625.287C666.02 632.428 656.316 636.865 654.612 649.479C668.541 657.522 677.129 672.263 677.129 688.15C677.129 712.754 656.531 733 631.5 733C606.469 733 585.871 712.754 585.871 688.15C585.871 672.263 594.459 657.522 608.388 649.479ZM631.484 710.552H631.516C644.032 710.552 654.33 700.429 654.33 688.127C654.33 675.824 644.032 665.702 631.516 665.702H631.484C618.968 665.702 608.67 675.824 608.67 688.127C608.67 700.429 618.968 710.552 631.484 710.552ZM631.484 486.301H631.516C644.032 486.301 654.33 476.178 654.33 463.875C654.33 451.573 644.032 441.45 631.516 441.45H631.484C618.968 441.45 608.67 451.573 608.67 463.875C608.67 476.178 618.968 486.301 631.484 486.301ZM768.371 531.151C780.886 531.151 791.186 521.028 791.186 508.726C791.186 496.423 780.886 486.301 768.371 486.301C755.855 486.301 745.557 496.423 745.557 508.726C745.557 521.028 755.855 531.151 768.371 531.151ZM494.629 531.151C507.145 531.151 517.443 521.028 517.443 508.726C517.443 496.423 507.145 486.301 494.629 486.301C482.113 486.301 471.814 496.423 471.814 508.726C471.814 521.028 482.113 531.151 494.629 531.151Z" fill="white" fill-opacity="0.95"/>
<path d="M2047.99 0H0.0107422V1152H2047.99V0Z" fill="#001529"/>
<path fill-rule="evenodd" clip-rule="evenodd" d="M523.191 653.095C521.436 639.517 511.44 634.741 475.262 627.054C455.116 622.777 434.295 618.349 416.668 606.725C395.369 592.709 383.964 571.436 382.62 543.442C368.035 534.851 359.007 518.852 359 501.584V501.562C359 475.077 380.219 453.284 406.004 453.284C431.789 453.284 453.008 475.077 453.008 501.562C453.008 518.705 444.118 534.61 429.704 543.254C431.386 565.19 444.452 571.165 484.787 579.779C497.831 582.555 511.174 585.399 523.498 590.288V495.089C508.973 486.476 499.996 470.505 499.996 453.278C499.996 426.794 521.215 405 547 405C572.785 405 594.004 426.794 594.004 453.278C594.004 470.505 585.027 486.476 570.502 495.089V590.288C582.826 585.399 596.169 582.555 609.213 579.779C649.548 571.165 662.614 565.19 664.296 543.254C649.882 534.61 640.992 518.705 640.992 501.562C640.992 475.077 662.21 453.284 687.996 453.284C713.781 453.284 735 475.077 735 501.562V501.584C734.993 518.852 725.965 534.851 711.38 543.442C710.036 571.436 698.631 592.709 677.332 606.725C659.705 618.349 638.884 622.777 618.738 627.054C582.56 634.741 572.564 639.517 570.808 653.095C585.157 661.753 594.004 677.621 594.004 694.722C594.004 721.207 572.785 743 547 743C521.215 743 499.996 721.207 499.996 694.722C499.996 677.621 508.842 661.753 523.191 653.095ZM546.984 718.836H547.016C559.909 718.836 570.518 707.939 570.518 694.697C570.518 681.454 559.909 670.558 547.016 670.558H546.984C534.091 670.558 523.482 681.454 523.482 694.697C523.482 707.939 534.091 718.836 546.984 718.836ZM546.984 477.445H547.016C559.909 477.445 570.518 466.548 570.518 453.305C570.518 440.063 559.909 429.166 547.016 429.166H546.984C534.091 429.166 523.482 440.063 523.482 453.305C523.482 466.548 534.091 477.445 546.984 477.445ZM687.996 525.723C700.888 525.723 711.498 514.826 711.498 501.584C711.498 488.341 700.888 477.445 687.996 477.445C675.103 477.445 664.494 488.341 664.494 501.584C664.494 514.826 675.103 525.723 687.996 525.723ZM406.004 525.723C418.897 525.723 429.506 514.826 429.506 501.584C429.506 488.341 418.897 477.445 406.004 477.445C393.111 477.445 382.502 488.341 382.502 501.584C382.502 514.826 393.111 525.723 406.004 525.723Z" fill="white" fill-opacity="0.95"/>
<path d="M836.1 510.08H869.58C880.98 510.08 886.68 504.32 886.68 492.8V480.38C886.68 468.98 880.44 463.28 867.96 463.28H836.1C834.9 463.28 834.3 463.76 834.3 464.72V508.46C834.3 509.54 834.9 510.08 836.1 510.08ZM836.1 455.36H867.78C873.42 455.36 877.74 453.86 880.74 450.86C883.86 447.86 885.42 443.6 885.42 438.08V427.46C885.42 415.94 879.72 410.18 868.32 410.18H836.1C834.9 410.18 834.3 410.72 834.3 411.8V453.74C834.3 454.82 834.9 455.36 836.1 455.36ZM825.3 515.84V404.42C825.3 402.98 825.9 402.26 827.1 402.26H869.04C876.84 402.26 883.02 404.48 887.58 408.92C892.14 413.36 894.42 419.48 894.42 427.28V438.26C894.42 449.18 889.26 456.2 878.94 459.32C883.38 459.56 887.28 461.6 890.64 465.44C894 469.28 895.68 474.26 895.68 480.38V492.98C895.68 500.78 893.4 506.9 888.84 511.34C884.28 515.78 878.1 518 870.3 518H827.1C825.9 518 825.3 517.28 825.3 515.84ZM982.782 518H945.162C937.362 518 931.182 515.72 926.622 511.16C922.182 506.6 919.962 500.36 919.962 492.44V451.76C919.962 443.84 922.182 437.6 926.622 433.04C931.182 428.48 937.362 426.2 945.162 426.2H960.642C968.442 426.2 974.622 428.48 979.182 433.04C983.742 437.6 986.022 443.84 986.022 451.76V474.62C986.022 476.06 985.302 476.78 983.862 476.78H930.582C929.502 476.78 928.962 477.32 928.962 478.4V492.26C928.962 497.9 930.402 502.28 933.282 505.4C936.162 508.4 940.362 509.9 945.882 509.9H982.782C984.102 509.9 984.762 510.56 984.762 511.88V516.02C984.762 517.34 984.102 518 982.782 518ZM930.582 469.58H975.402C976.482 469.58 977.022 469.04 977.022 467.96V451.94C977.022 446.3 975.582 441.98 972.702 438.98C969.822 435.86 965.622 434.3 960.102 434.3H945.882C940.362 434.3 936.162 435.86 933.282 438.98C930.402 441.98 928.962 446.3 928.962 451.94V467.96C928.962 469.04 929.502 469.58 930.582 469.58ZM1017.38 518H1012.16C1010.96 518 1010.36 517.28 1010.36 515.84V393.62C1010.36 392.18 1010.96 391.46 1012.16 391.46H1017.38C1018.7 391.46 1019.36 392.18 1019.36 393.62V435.56H1020.08C1023.44 429.32 1029.68 426.2 1038.8 426.2H1050.68C1058.36 426.2 1064.42 428.48 1068.86 433.04C1073.3 437.6 1075.52 443.84 1075.52 451.76V515.84C1075.52 517.28 1074.92 518 1073.72 518H1068.5C1067.18 518 1066.52 517.28 1066.52 515.84V452.12C1066.52 446.48 1065.08 442.1 1062.2 438.98C1059.32 435.86 1055.12 434.3 1049.6 434.3H1037.9C1032.14 434.3 1027.58 435.86 1024.22 438.98C1020.98 441.98 1019.36 446.3 1019.36 451.94V515.84C1019.36 517.28 1018.7 518 1017.38 518ZM1102.49 411.08V393.8C1102.49 392.48 1103.09 391.82 1104.29 391.82H1109.69C1110.89 391.82 1111.49 392.48 1111.49 393.8V411.08C1111.49 412.52 1110.89 413.24 1109.69 413.24H1104.29C1103.09 413.24 1102.49 412.52 1102.49 411.08ZM1102.49 515.84V428.36C1102.49 426.92 1103.09 426.2 1104.29 426.2H1109.51C1110.83 426.2 1111.49 426.92 1111.49 428.36V515.84C1111.49 517.28 1110.89 518 1109.69 518H1104.29C1103.09 518 1102.49 517.28 1102.49 515.84ZM1146.4 518H1141.18C1139.98 518 1139.38 517.28 1139.38 515.84V428.36C1139.38 426.92 1139.98 426.2 1141.18 426.2H1146.4C1147.72 426.2 1148.38 426.92 1148.38 428.36V435.56H1149.1C1152.46 429.32 1158.7 426.2 1167.82 426.2H1179.7C1187.38 426.2 1193.44 428.48 1197.88 433.04C1202.32 437.6 1204.54 443.84 1204.54 451.76V515.84C1204.54 517.28 1203.94 518 1202.74 518H1197.52C1196.2 518 1195.54 517.28 1195.54 515.84V452.12C1195.54 446.48 1194.1 442.1 1191.22 438.98C1188.34 435.86 1184.14 434.3 1178.62 434.3H1166.92C1161.16 434.3 1156.6 435.86 1153.24 438.98C1150 441.98 1148.38 446.3 1148.38 451.94V515.84C1148.38 517.28 1147.72 518 1146.4 518ZM1265.71 518H1253.65C1245.97 518 1239.91 515.72 1235.47 511.16C1231.03 506.6 1228.81 500.36 1228.81 492.44V451.76C1228.81 443.84 1231.03 437.6 1235.47 433.04C1239.91 428.48 1245.97 426.2 1253.65 426.2H1265.71C1274.95 426.2 1281.25 429.32 1284.61 435.56H1285.33V393.62C1285.33 392.18 1285.93 391.46 1287.13 391.46H1292.35C1293.67 391.46 1294.33 392.18 1294.33 393.62V515.84C1294.33 517.28 1293.67 518 1292.35 518H1287.13C1285.93 518 1285.33 517.28 1285.33 515.84V508.64H1284.61C1281.25 514.88 1274.95 518 1265.71 518ZM1285.33 492.26V451.94C1285.33 446.3 1283.65 441.98 1280.29 438.98C1277.05 435.86 1272.55 434.3 1266.79 434.3H1254.73C1249.21 434.3 1245.01 435.86 1242.13 438.98C1239.25 442.1 1237.81 446.48 1237.81 452.12V492.08C1237.81 497.72 1239.25 502.1 1242.13 505.22C1245.01 508.34 1249.21 509.9 1254.73 509.9H1266.79C1272.55 509.9 1277.05 508.4 1280.29 505.4C1283.65 502.28 1285.33 497.9 1285.33 492.26ZM1373.26 434.3H1362.28C1360.96 434.3 1360.3 433.7 1360.3 432.5V428.18C1360.3 426.86 1360.96 426.2 1362.28 426.2H1373.26C1374.34 426.2 1374.88 425.66 1374.88 424.58V410C1374.88 408.56 1375.54 407.84 1376.86 407.84H1382.08C1383.4 407.84 1384.06 408.56 1384.06 410V424.58C1384.06 425.66 1384.6 426.2 1385.68 426.2H1407.1C1408.42 426.2 1409.08 426.86 1409.08 428.18V432.5C1409.08 433.7 1408.42 434.3 1407.1 434.3H1385.68C1384.6 434.3 1384.06 434.84 1384.06 435.92V492.62C1384.06 498.14 1385.62 502.4 1388.74 505.4C1391.86 508.4 1396.24 509.9 1401.88 509.9H1408.9C1410.22 509.9 1410.88 510.56 1410.88 511.88V516.02C1410.88 517.34 1410.22 518 1408.9 518H1401.16C1393.24 518 1386.88 515.78 1382.08 511.34C1377.28 506.9 1374.88 500.78 1374.88 492.98V435.92C1374.88 434.84 1374.34 434.3 1373.26 434.3ZM1438.72 518H1433.5C1432.3 518 1431.7 517.28 1431.7 515.84V393.62C1431.7 392.18 1432.3 391.46 1433.5 391.46H1438.72C1440.04 391.46 1440.7 392.18 1440.7 393.62V435.56H1441.42C1444.78 429.32 1451.02 426.2 1460.14 426.2H1472.02C1479.7 426.2 1485.76 428.48 1490.2 433.04C1494.64 437.6 1496.86 443.84 1496.86 451.76V515.84C1496.86 517.28 1496.26 518 1495.06 518H1489.84C1488.52 518 1487.86 517.28 1487.86 515.84V452.12C1487.86 446.48 1486.42 442.1 1483.54 438.98C1480.66 435.86 1476.46 434.3 1470.94 434.3H1459.24C1453.48 434.3 1448.92 435.86 1445.56 438.98C1442.32 441.98 1440.7 446.3 1440.7 451.94V515.84C1440.7 517.28 1440.04 518 1438.72 518ZM1583.95 518H1546.33C1538.53 518 1532.35 515.72 1527.79 511.16C1523.35 506.6 1521.13 500.36 1521.13 492.44V451.76C1521.13 443.84 1523.35 437.6 1527.79 433.04C1532.35 428.48 1538.53 426.2 1546.33 426.2H1561.81C1569.61 426.2 1575.79 428.48 1580.35 433.04C1584.91 437.6 1587.19 443.84 1587.19 451.76V474.62C1587.19 476.06 1586.47 476.78 1585.03 476.78H1531.75C1530.67 476.78 1530.13 477.32 1530.13 478.4V492.26C1530.13 497.9 1531.57 502.28 1534.45 505.4C1537.33 508.4 1541.53 509.9 1547.05 509.9H1583.95C1585.27 509.9 1585.93 510.56 1585.93 511.88V516.02C1585.93 517.34 1585.27 518 1583.95 518ZM1531.75 469.58H1576.57C1577.65 469.58 1578.19 469.04 1578.19 467.96V451.94C1578.19 446.3 1576.75 441.98 1573.87 438.98C1570.99 435.86 1566.79 434.3 1561.27 434.3H1547.05C1541.53 434.3 1537.33 435.86 1534.45 438.98C1531.57 441.98 1530.13 446.3 1530.13 451.94V467.96C1530.13 469.04 1530.67 469.58 1531.75 469.58Z" fill="white"/>
<g filter="url(#filter0_d_6_12)">
<path d="M888.25 716H856.75C845.917 716 837.333 712.833 831 706.5C824.833 700.167 821.75 691.5 821.75 680.5V590.75C821.75 579.75 824.833 571.083 831 564.75C837.333 558.417 845.917 555.25 856.75 555.25H888.25C899.083 555.25 907.583 558.417 913.75 564.75C920.083 571.083 923.25 579.75 923.25 590.75V603C923.25 605 922.333 606 920.5 606H913.5C911.667 606 910.75 605 910.75 603V591.25C910.75 583.25 908.667 577.167 904.5 573C900.5 568.667 894.667 566.5 887 566.5H857.75C850.083 566.5 844.25 568.667 840.25 573C836.25 577.333 834.25 583.417 834.25 591.25V680C834.25 687.833 836.25 693.917 840.25 698.25C844.25 702.583 850.083 704.75 857.75 704.75H887C894.667 704.75 900.5 702.667 904.5 698.5C908.667 694.167 910.75 688 910.75 680V668.25C910.75 666.25 911.667 665.25 913.5 665.25H920.5C922.333 665.25 923.25 666.25 923.25 668.25V680.5C923.25 691.5 920.083 700.167 913.75 706.5C907.583 712.833 899.083 716 888.25 716ZM1011.25 716H989.748C978.915 716 970.331 712.833 963.998 706.5C957.831 700.167 954.748 691.5 954.748 680.5V624C954.748 613 957.831 604.333 963.998 598C970.331 591.667 978.915 588.5 989.748 588.5H1011.25C1022.08 588.5 1030.66 591.667 1037 598C1043.33 604.333 1046.5 613 1046.5 624V680.5C1046.5 691.5 1043.33 700.167 1037 706.5C1030.66 712.833 1022.08 716 1011.25 716ZM990.748 704.75H1010.25C1017.91 704.75 1023.75 702.667 1027.75 698.5C1031.91 694.167 1034 688.083 1034 680.25V624.25C1034 616.417 1031.91 610.417 1027.75 606.25C1023.75 601.917 1017.91 599.75 1010.25 599.75H990.748C983.081 599.75 977.248 601.917 973.248 606.25C969.248 610.417 967.248 616.417 967.248 624.25V680.25C967.248 688.083 969.248 694.167 973.248 698.5C977.248 702.667 983.081 704.75 990.748 704.75ZM1091.02 716H1083.77C1082.1 716 1081.27 715 1081.27 713V591.5C1081.27 589.5 1082.1 588.5 1083.77 588.5H1091.02C1092.85 588.5 1093.77 589.5 1093.77 591.5V601.5H1094.77C1099.6 592.833 1108.44 588.5 1121.27 588.5H1131.52C1146.19 588.5 1156.35 594.333 1162.02 606C1164.52 600.167 1168.77 595.833 1174.77 593C1180.77 590 1186.94 588.5 1193.27 588.5H1202.52C1213.35 588.5 1221.85 591.667 1228.02 598C1234.19 604.333 1237.27 613 1237.27 624V713C1237.27 715 1236.35 716 1234.52 716H1227.27C1225.44 716 1224.52 715 1224.52 713V624.5C1224.52 616.5 1222.52 610.417 1218.52 606.25C1214.52 601.917 1208.69 599.75 1201.02 599.75H1191.77C1183.77 599.75 1177.44 602.083 1172.77 606.75C1168.1 611.25 1165.77 617.417 1165.77 625.25V713C1165.77 715 1164.85 716 1163.02 716H1155.77C1153.94 716 1153.02 715 1153.02 713V624.5C1153.02 616.5 1151.02 610.417 1147.02 606.25C1143.02 601.917 1137.19 599.75 1129.52 599.75H1119.52C1111.52 599.75 1105.19 601.917 1100.52 606.25C1096.02 610.417 1093.77 616.417 1093.77 624.25V713C1093.77 715 1092.85 716 1091.02 716ZM1283.16 716H1275.91C1274.24 716 1273.41 715 1273.41 713V591.5C1273.41 589.5 1274.24 588.5 1275.91 588.5H1283.16C1284.99 588.5 1285.91 589.5 1285.91 591.5V601.5H1286.91C1291.74 592.833 1300.58 588.5 1313.41 588.5H1323.66C1338.33 588.5 1348.49 594.333 1354.16 606C1356.66 600.167 1360.91 595.833 1366.91 593C1372.91 590 1379.08 588.5 1385.41 588.5H1394.66C1405.49 588.5 1413.99 591.667 1420.16 598C1426.33 604.333 1429.41 613 1429.41 624V713C1429.41 715 1428.49 716 1426.66 716H1419.41C1417.58 716 1416.66 715 1416.66 713V624.5C1416.66 616.5 1414.66 610.417 1410.66 606.25C1406.66 601.917 1400.83 599.75 1393.16 599.75H1383.91C1375.91 599.75 1369.58 602.083 1364.91 606.75C1360.24 611.25 1357.91 617.417 1357.91 625.25V713C1357.91 715 1356.99 716 1355.16 716H1347.91C1346.08 716 1345.16 715 1345.16 713V624.5C1345.16 616.5 1343.16 610.417 1339.16 606.25C1335.16 601.917 1329.33 599.75 1321.66 599.75H1311.66C1303.66 599.75 1297.33 601.917 1292.66 606.25C1288.16 610.417 1285.91 616.417 1285.91 624.25V713C1285.91 715 1284.99 716 1283.16 716ZM1466.8 567.5V543.5C1466.8 541.667 1467.63 540.75 1469.3 540.75H1476.8C1478.47 540.75 1479.3 541.667 1479.3 543.5V567.5C1479.3 569.5 1478.47 570.5 1476.8 570.5H1469.3C1467.63 570.5 1466.8 569.5 1466.8 567.5ZM1466.8 713V591.5C1466.8 589.5 1467.63 588.5 1469.3 588.5H1476.55C1478.38 588.5 1479.3 589.5 1479.3 591.5V713C1479.3 715 1478.47 716 1476.8 716H1469.3C1467.63 716 1466.8 715 1466.8 713ZM1523.54 599.75H1508.29C1506.46 599.75 1505.54 598.917 1505.54 597.25V591.25C1505.54 589.417 1506.46 588.5 1508.29 588.5H1523.54C1525.04 588.5 1525.79 587.75 1525.79 586.25V566C1525.79 564 1526.71 563 1528.54 563H1535.79C1537.62 563 1538.54 564 1538.54 566V586.25C1538.54 587.75 1539.29 588.5 1540.79 588.5H1570.54C1572.37 588.5 1573.29 589.417 1573.29 591.25V597.25C1573.29 598.917 1572.37 599.75 1570.54 599.75H1540.79C1539.29 599.75 1538.54 600.5 1538.54 602V680.75C1538.54 688.417 1540.71 694.333 1545.04 698.5C1549.37 702.667 1555.46 704.75 1563.29 704.75H1573.04C1574.87 704.75 1575.79 705.667 1575.79 707.5V713.25C1575.79 715.083 1574.87 716 1573.04 716H1562.29C1551.29 716 1542.46 712.917 1535.79 706.75C1529.12 700.583 1525.79 692.083 1525.79 681.25V602C1525.79 600.5 1525.04 599.75 1523.54 599.75Z" fill="#00FFF9"/>
</g>
</g>
<defs>
<filter id="filter0_d_6_12" x="791.75" y="510.75" width="814.039" height="235.25" filterUnits="userSpaceOnUse" color-interpolation-filters="sRGB">
<feFlood flood-opacity="0" result="BackgroundImageFix"/>
<feColorMatrix in="SourceAlpha" type="matrix" values="0 0 0 0 0 0 0 0 0 0 0 0 0 0 0 0 0 0 127 0" result="hardAlpha"/>
<feOffset/>
<feGaussianBlur stdDeviation="15"/>
<feComposite in2="hardAlpha" operator="out"/>
<feColorMatrix type="matrix" values="0 0 0 0 0 0 0 0 0 1 0 0 0 0 0.976471 0 0 0 1 0"/>
<feBlend mode="normal" in2="BackgroundImageFix" result="effect1_dropShadow_6_12"/>
<feBlend mode="normal" in="SourceGraphic" in2="effect1_dropShadow_6_12" result="shape"/>
</filter>
</defs>
</svg>
