<?xml version="1.0" encoding="UTF-8" standalone="no"?>
<!DOCTYPE svg PUBLIC "-//W3C//DTD SVG 1.1//EN" "http://www.w3.org/Graphics/SVG/1.1/DTD/svg11.dtd">
<svg width="100%" height="100%" viewBox="0 0 600 600" version="1.1" xmlns="http://www.w3.org/2000/svg" xmlns:xlink="http://www.w3.org/1999/xlink" xml:space="preserve" xmlns:serif="http://www.serif.com/" style="fill-rule:evenodd;clip-rule:evenodd;stroke-linejoin:round;stroke-miterlimit:2;">
    <g transform="matrix(1,0,0,1,-3330,0)">
        <g id="Artboard6" transform="matrix(1,0,0,1,-0.666667,0)">
            <rect x="3330.67" y="0" width="600" height="600" style="fill:none;"/>
            <g transform="matrix(-0.889587,0,0,0.889587,3773.02,72.2668)">
                <path d="M192.44,360.851C194.83,342.851 208.44,336.52 257.7,326.33C285.13,320.66 313.48,314.79 337.48,299.38C366.48,280.8 382.01,252.6 383.84,215.49C403.698,204.101 415.99,182.892 416,160L416,159.971C416,124.862 387.109,95.971 352,95.971C316.891,95.971 288,124.862 288,159.971C288,182.697 300.105,203.781 319.73,215.24C317.44,244.32 299.65,252.24 244.73,263.66C226.97,267.34 208.802,271.11 192.022,277.59L192.022,151.39C211.799,139.972 224.022,118.801 224.022,95.964C224.022,60.855 195.131,31.964 160.022,31.964C124.913,31.964 96.022,60.855 96.022,95.964C96.022,118.801 108.245,139.972 128.022,151.39L128.022,277.59C111.242,271.11 93.074,267.34 75.314,263.66C20.394,252.24 2.604,244.32 0.314,215.24C19.94,203.781 32.044,182.697 32.044,159.971C32.044,124.862 3.154,95.971 -31.956,95.971C-67.065,95.971 -95.956,124.862 -95.956,159.971L-95.956,160C-95.946,182.892 -83.654,204.101 -63.796,215.49C-61.966,252.6 -46.436,280.8 -17.436,299.38C6.564,314.79 34.914,320.66 62.344,326.33C111.604,336.52 125.215,342.851 127.605,360.851C108.068,372.328 96.022,393.363 96.022,416.033C96.022,451.143 124.913,480.033 160.022,480.033C195.131,480.033 224.022,451.143 224.022,416.033C224.022,393.363 211.977,372.328 192.44,360.851ZM160.044,448L160,448C142.445,448 128,433.555 128,416C128,398.445 142.445,384 160,384L160.044,384C177.599,384 192.044,398.445 192.044,416C192.044,433.555 177.599,448 160.044,448ZM160.044,128L160,128C142.445,128 128,113.555 128,96C128,78.445 142.445,64 160,64L160.044,64C177.599,64 192.044,78.445 192.044,96C192.044,113.555 177.599,128 160.044,128ZM-31.956,192C-49.51,192 -63.956,177.555 -63.956,160C-63.956,142.445 -49.51,128 -31.956,128C-14.401,128 0.044,142.445 0.044,160C0.044,177.555 -14.401,192 -31.956,192ZM352,192C334.445,192 320,177.555 320,160C320,142.445 334.445,128 352,128C369.555,128 384,142.445 384,160C384,177.555 369.555,192 352,192Z" style="fill:rgb(15,6,46);fill-opacity:0.95;"/>
            </g>
        </g>
    </g>
</svg>
